<svg xmlns="http://www.w3.org/2000/svg" viewBox="0 0 60.76 73.73"><defs><style>.cls-1{fill:#c5d4d8;stroke:#98a1a3;stroke-miterlimit:10;}.cls-2{fill:#f4bed6;}.cls-3{fill:#577f68;}.cls-4{fill:#9a714b;}</style></defs><title>Asset 2</title><g id="Layer_2" data-name="Layer 2"><g id="flat_design_person" data-name="flat design person"><path class="cls-1" d="M20.75,55.39S14.37,66.81,6.37,62.64.87,67.81.87,67.81l8,2.62s34,6.49,40.34-.28"/><path class="cls-1" d="M57,52.92c0,12.73-8.22,17.23-17.82,17.23s-17-4.5-17-17.23,7.79-23,17.39-23S57,40.19,57,52.92Z"/><path class="cls-1" d="M22.25,58.35"/><path class="cls-1" d="M22.45,51.89S18.29,54,23,59.25,48.2,72,52.87,70.14,64.37,65.81,57,53.81"/><path class="cls-1" d="M23.07,44.43c-7,1.28-.62,7.47-.62,7.47s25.12,11.75,35.81,2.33c0,0,6.09-2.44-3.28-9.8"/><path class="cls-1" d="M25.59,37.32s-7.21,1-1,8.82S58.2,44.73,58.2,44.73s3.63-.42-2.55-4"/><path class="cls-1" d="M51.61,34.21c8.58,6,3.22,6.77,3.22,6.77-17,8.58-29-3.17-29-3.17s-3.25-4.92,3.25-3.17"/><ellipse class="cls-2" cx="39.64" cy="22.76" rx="15.02" ry="18.95"/><ellipse class="cls-2" cx="24.45" cy="21.15" rx="4.27" ry="4.44"/><ellipse class="cls-2" cx="54.84" cy="21.15" rx="4.27" ry="4.44"/><circle class="cls-3" cx="33.59" cy="19.17" r="1.57"/><circle class="cls-3" cx="45.7" cy="19.17" r="1.57"/><path class="cls-4" d="M31.7,1.18a9.33,9.33,0,0,1,1.8,3.24c0,1.59,2,.3,2,.3a31.36,31.36,0,0,0-2-2.74C33,1.39,32.08.6,31.87.28,31.32-.58,31.7,1.18,31.7,1.18Z"/><path class="cls-4" d="M33.28,4.53S34.3.87,33,0c0,0,3.41,1.23,3.36,4.64s1,2.19,1,2.19L33,4.55Z"/><path class="cls-4" d="M31,1.7S33.11,3.82,34.47,3,34,6.2,34,6.2,31.1,3.52,31,1.7Z"/><path class="cls-4" d="M32.89,5.06s2.38,3.07,4.2,2.19-.7-3-.7-3"/></g></g></svg>