<?xml version="1.0" encoding="utf-8"?>
<!-- Generator: Adobe Illustrator 20.1.0, SVG Export Plug-In . SVG Version: 6.00 Build 0)  -->
<svg version="1.1"
	 id="Layer_1" xmlns:cc="http://creativecommons.org/ns#" xmlns:dc="http://purl.org/dc/elements/1.1/" xmlns:inkscape="http://www.inkscape.org/namespaces/inkscape" xmlns:rdf="http://www.w3.org/1999/02/22-rdf-syntax-ns#" xmlns:sodipodi="http://sodipodi.sourceforge.net/DTD/sodipodi-0.dtd" xmlns:svg="http://www.w3.org/2000/svg"
	 xmlns="http://www.w3.org/2000/svg" xmlns:xlink="http://www.w3.org/1999/xlink" x="0px" y="0px" viewBox="0 0 100 125"
	 style="enable-background:new 0 0 100 125;" xml:space="preserve">
<style type="text/css">
	.st0{fill:#F0F0F0;}
</style>
<g transform="translate(0,-952.36218)">
	<path class="st0" d="M86.9,967.3c-0.8,0-1.5,0.4-2,1c-10.7,11.2-29.8,32.1-41.2,44.1L28.8,1001c-1.3-1-3.2-0.8-4.2,0.5
		s-0.8,3.2,0.5,4.2c0,0,0,0,0.1,0l17,13c1.2,0.9,2.9,0.8,4-0.3c11.2-11.7,31.9-34.4,43-46c1.2-1.2,1.2-3.1,0-4.2
		C88.5,967.6,87.7,967.3,86.9,967.3z M13,971.4c-1.7,0-3,1.3-3,3v60c0,1.7,1.3,3,3,3h60c1.7,0,3-1.3,3-3v-32c0-1.7-1.3-3-3-3
		s-3,1.3-3,3c0,0,0,0.1,0,0.1v29H16v-54h51c1.7,0,3-1.3,3-3s-1.3-3-3-3c0,0-0.1,0-0.1,0L13,971.4L13,971.4z"/>
</g>
</svg>
