<svg xmlns="http://www.w3.org/2000/svg" viewBox="0 0 167.89 247.9"><defs><style>.cls-1,.cls-2{fill:#8c8c8c;}.cls-2{stroke:#565656;stroke-miterlimit:10;stroke-width:0.25px;}.cls-3{fill:#323b52;}.cls-4{fill:#7e8fb3;}.cls-5{fill:#43220a;}.cls-6{fill:#f4bed6;}.cls-7{fill:#b0bcc1;}.cls-8{fill:#a1acaf;}.cls-9{fill:#9a714b;}.cls-10{fill:#755841;}</style></defs><title>Asset 3</title><g id="Layer_2" data-name="Layer 2"><g id="flat_design_person" data-name="flat design person"><polygon class="cls-1" points="0 32.98 38.5 26.16 77.69 40.83 118.21 27.55 139 33.91 167.89 30.46 128.75 149.41 113.35 133.82 116 132.66 77.69 149.41 49.74 130.41 28.5 146.16 0 32.98"/><line class="cls-2" x1="38.5" y1="26.17" x2="49.74" y2="130.42"/><line class="cls-2" x1="139" y1="33.92" x2="113.35" y2="133.82"/><polygon class="cls-3" points="50.73 161.5 63.15 232.9 97.16 232.5 110.24 159.19 49.74 158.81 50.73 161.5"/><polygon class="cls-4" points="56.74 227.9 56.74 242.91 56.74 246.47 105.74 246.82 105.74 227.9 56.74 227.9"/><path class="cls-5" d="M46.31,247.9H81.24s.46-6.07-4.63-12.12c-5.7-6.77-19.14-6-25.31-.36C48.32,238.15,47.38,241.13,46.31,247.9Z"/><path class="cls-5" d="M81.24,247.9h34.93s.46-6.07-4.63-12.12c-5.7-6.77-19.14-6-25.31-.36C83.25,238.15,82.31,241.13,81.24,247.9Z"/><ellipse class="cls-6" cx="44.31" cy="53.4" rx="10.4" ry="10.81"/><path class="cls-7" d="M65.43,82.4s-36-1.5-33,24.5H45.3l.27,62h70.95l.55-61.16,12.6-.16s5.75-24.83-31.5-25.79Z"/><path class="cls-8" d="M32.43,106.9S30,131.47,45.58,137.61L45.3,106.9Z"/><path class="cls-8" d="M129.67,107.62s3.29,25.91-13.15,30.52l.55-30.33Z"/><ellipse class="cls-6" cx="118.35" cy="53.4" rx="10.4" ry="10.81"/><path class="cls-9" d="M53.6,4.65s6.6,3,7.8,9.44c1,5.17,6.61-.24,6.61-.24S56.55,4.69,53.61,1.61C51.29-.82,53.6,4.65,53.6,4.65Z"/><path class="cls-9" d="M60.77,14.56S61.84,2.06,57.23,0C57.23,0,69,1.93,71,13s4.73,6.47,4.73,6.47L59.76,14.81Z"/><path class="cls-9" d="M51.61,6.77s8.19,5.59,12.08,2.09-3.87,7.68-3.87,7.68S53.44,10.87,51.61,6.77Z"/><ellipse class="cls-6" cx="82.16" cy="52.98" rx="36.6" ry="46.17"/><path class="cls-10" d="M48.94,41.13s.55-19.31,13.64-22.47,47.69-1,52.16,9.57,1.94-1.72,2.16,24.46l-1.42-31.2L83.3,4.8l-21,3.38L48.74,17.57,45.36,30Z"/><path class="cls-9" d="M55.5,69.56S39,59.37,44.6,23.21C46.89,8.48,51.47,13.06,61,6.85c0,0,28.42-18.31,57.27,13.74,5.89,6.55,4.38,17,3.6,23.56-2.5,17.44-8.08,22-12.83,26-23.56,10.44-53.5-.61-53.5-.61"/><path class="cls-9" d="M60,64.21"/><path class="cls-9" d="M76.5,66.92"/><path class="cls-5" d="M81.24,247.9l-.06-.83-1-13.07a3.3,3.3,0,0,0-3.29-3.05H63.78"/><path class="cls-5" d="M98.71,230.94H85.29a3.15,3.15,0,0,0-3.14,2.95l-.9,14"/></g></g></svg>